<svg width="70" height="70" viewBox="0 0 70 70" fill="none"
  xmlns="http://www.w3.org/2000/svg">
  <g clip-path="url(#clip0_349_2)">
    <rect y="48" width="70" height="8" fill="#666666"/>
    <rect x="8" y="40" width="24" height="8" transform="rotate(90 8 40)" fill="#666666"/>
    <rect x="70" y="40" width="24" height="8" transform="rotate(90 70 40)" fill="#666666"/>
    <path d="M26.9778 14.3207L23.6196 34H16L20.3541 8.49935H27.4642L26.9778 14.3207ZM25.0787 20.3777L23.4343 20.4484C23.5887 18.9243 23.9053 17.4159 24.3839 15.9233C24.878 14.4306 25.5573 13.0794 26.422 11.8696C27.2866 10.6598 28.3597 9.70132 29.6412 8.99428C30.9227 8.28724 32.4204 7.95728 34.1342 8.00442C35.4003 8.03584 36.4502 8.3108 37.284 8.8293C38.1177 9.33209 38.7662 10.0077 39.2294 10.8562C39.7081 11.6889 40.0169 12.6395 40.1558 13.7079C40.3102 14.7606 40.3334 15.8526 40.2253 16.9839L37.4461 34H29.8265L32.4436 17.9737C32.5208 17.3138 32.5362 16.6932 32.4899 16.1118C32.4436 15.5305 32.2583 15.0591 31.934 14.6978C31.6098 14.3207 31.0617 14.1243 30.2897 14.1085C29.4559 14.0771 28.738 14.2578 28.1358 14.6506C27.5336 15.0277 27.0241 15.5305 26.6072 16.159C26.2058 16.7875 25.8739 17.4709 25.6114 18.2094C25.3643 18.9479 25.1868 19.6706 25.0787 20.3777ZM38.9515 20.3777L36.9366 20.4484C37.091 18.9243 37.3998 17.4238 37.863 15.9469C38.3416 14.4542 38.9978 13.103 39.8316 11.8932C40.6808 10.6833 41.7384 9.72489 43.0045 9.01785C44.2706 8.3108 45.7682 7.97299 47.4975 8.00442C48.8871 8.05156 50.0297 8.35794 50.9252 8.92357C51.8207 9.48921 52.5001 10.2434 52.9633 11.1861C53.4419 12.1288 53.7507 13.1815 53.8897 14.3442C54.0286 15.5069 54.0363 16.7089 53.9128 17.9501L51.2726 34H43.6298L46.27 17.9266C46.3472 17.2824 46.3627 16.6775 46.3164 16.1118C46.27 15.5305 46.0848 15.0591 45.7605 14.6978C45.4517 14.3207 44.919 14.1243 44.1625 14.1085C43.2978 14.0771 42.5567 14.25 41.9391 14.627C41.337 15.0041 40.8352 15.5069 40.4337 16.1354C40.0323 16.7482 39.7158 17.4316 39.4842 18.1858C39.2526 18.9243 39.075 19.6549 38.9515 20.3777Z" fill="#666666"/>
  </g>
  <defs>
    <clipPath id="clip0_349_2">
      <rect width="70" height="70" fill="white"/>
    </clipPath>
  </defs>
</svg>
