<svg width="70" height="70" viewBox="0 0 70 70" fill="none"
  xmlns="http://www.w3.org/2000/svg">
  <path fill-rule="evenodd" clip-rule="evenodd" d="M35 8.94444C42.3702 8.94444 49.2298 6.75868 54.9661 3.00001C57.9738 7.89527 62.1047 12.0262 67 15.0339C63.2413 20.7702 61.0556 27.6298 61.0556 35C61.0556 42.3702 63.2413 49.2298 67 54.9661C62.1047 57.9738 57.9738 62.1047 54.9661 67C49.2298 63.2413 42.3702 61.0556 35 61.0556C27.6298 61.0556 20.7702 63.2413 15.0339 67C12.0262 62.1047 7.89526 57.9738 3 54.9661C6.75867 49.2298 8.94444 42.3702 8.94444 35C8.94444 27.6298 6.75868 20.7702 3.00001 15.0339C7.89527 12.0262 12.0262 7.89527 15.0339 3.00001C20.7702 6.75868 27.6298 8.94444 35 8.94444Z" fill="#666666"/>
</svg>
