<svg width="70" height="70" viewBox="0 0 70 70" fill="none"
  xmlns="http://www.w3.org/2000/svg">
  <path d="M45.6649 59.3226C42.4236 69.5591 27.5764 69.5591 24.3351 59.3226C22.8898 54.7581 18.5209 51.6453 13.6255 51.6453C2.6515 51.6453 -2.24376 38.0532 6.47676 31.5518L7.38439 30.8751C11.2451 27.9968 12.8573 23.0745 11.4229 18.5445L10.9528 17.0599C7.7667 6.99777 19.6958 -1.12285 28.2713 5.27047C32.2439 8.2321 37.7561 8.2321 41.7287 5.27047C50.3042 -1.12284 62.2333 6.99776 59.0472 17.0599L58.5771 18.5445C57.1427 23.0745 58.7548 27.9968 62.6156 30.8751L63.5232 31.5518C72.2438 38.0532 67.3485 51.6453 56.3745 51.6453C51.4791 51.6453 47.1102 54.7581 45.6649 59.3226Z" fill="#666666"/>
</svg>
