<svg width="70" height="70" viewBox="0 0 70 70" fill="none"
  xmlns="http://www.w3.org/2000/svg">
  <path fill-rule="evenodd" clip-rule="evenodd" d="M54.9661 3C49.2298 6.75867 42.3702 8.94443 35 8.94443C27.6298 8.94443 20.7702 6.75867 15.0339 3C12.0262 7.89526 7.89527 12.0262 3.00001 15.0339C6.75868 20.7701 8.94444 27.6298 8.94444 35C8.94444 42.3702 6.75867 49.2298 3 54.9661C7.89526 57.9738 12.0262 62.1047 15.0339 67C20.7702 63.2413 27.6298 61.0556 35 61.0556C42.3702 61.0556 49.2298 63.2413 54.9661 67C57.9738 62.1047 62.1047 57.9738 67 54.9661C63.2413 49.2298 61.0556 42.3702 61.0556 35C61.0556 27.6298 63.2413 20.7701 67 15.0339C62.1047 12.0262 57.9738 7.89526 54.9661 3ZM8.00001 16.4853L16.4853 8L34.8701 26.3848L26.3848 34.8701L8.00001 16.4853ZM34.8701 43.3553L26.3848 34.8701L8 53.2548L16.4853 61.7401L34.8701 43.3553ZM43.3553 34.8701L34.8701 26.3848L53.2548 8.00001L61.7401 16.4853L43.3553 34.8701ZM43.3553 34.8701L34.8701 43.3553L53.2548 61.7401L61.7401 53.2548L43.3553 34.8701Z" fill="#666666"/>
</svg>
